{
    "asset" : {
        "generator" : "Khronos glTF Blender I/O v1.4.40",
        "version" : "2.0"
    },
    "scene" : 0,
    "scenes" : [
        {
            "extras" : {
                "glTF2ExportSettings" : {
                    "export_apply" : 1,
                    "export_extras" : 1,
                    "export_format" : "GLTF_SEPARATE",
                    "export_texture_dir" : "textures"
                }
            },
            "name" : "Scene",
            "nodes" : [
                0,
                1,
                2,
                3
            ]
        }
    ],
    "nodes" : [
        {
            "name" : "Light",
            "rotation" : [
                0.16907575726509094,
                0.7558803558349609,
                -0.27217137813568115,
                0.570947527885437
            ],
            "translation" : [
                4.076245307922363,
                5.903861999511719,
                -1.0054539442062378
            ]
        },
        {
            "name" : "Camera",
            "rotation" : [
                0.483536034822464,
                0.33687159419059753,
                -0.20870360732078552,
                0.7804827094078064
            ],
            "translation" : [
                7.358891487121582,
                4.958309173583984,
                6.925790786743164
            ]
        },
        {
            "mesh" : 0,
            "name" : "Cylinder",
            "scale" : [
                0.013000000268220901,
                0.0010000000474974513,
                0.013000000268220901
            ]
        },
        {
            "mesh" : 1,
            "name" : "Plane",
            "scale" : [
                -0.00849998276680708,
                -0.008500000461935997,
                -0.008500000461935997
            ],
            "translation" : [
                0,
                -0.0008999999845400453,
                0
            ]
        }
    ],
    "meshes" : [
        {
            "name" : "Cylinder",
            "primitives" : [
                {
                    "attributes" : {
                        "POSITION" : 0,
                        "NORMAL" : 1,
                        "TEXCOORD_0" : 2
                    },
                    "indices" : 3
                }
            ]
        },
        {
            "name" : "Plane.004",
            "primitives" : [
                {
                    "attributes" : {
                        "POSITION" : 4,
                        "NORMAL" : 5,
                        "TEXCOORD_0" : 6
                    },
                    "indices" : 7
                }
            ]
        }
    ],
    "accessors" : [
        {
            "bufferView" : 0,
            "componentType" : 5126,
            "count" : 748,
            "max" : [
                1,
                1.5312764644622803,
                1
            ],
            "min" : [
                -1,
                -1,
                -1
            ],
            "type" : "VEC3"
        },
        {
            "bufferView" : 1,
            "componentType" : 5126,
            "count" : 748,
            "type" : "VEC3"
        },
        {
            "bufferView" : 2,
            "componentType" : 5126,
            "count" : 748,
            "type" : "VEC2"
        },
        {
            "bufferView" : 3,
            "componentType" : 5123,
            "count" : 1302,
            "type" : "SCALAR"
        },
        {
            "bufferView" : 4,
            "componentType" : 5126,
            "count" : 18175,
            "max" : [
                1.47029709815979,
                0.15000000596046448,
                1.4702969789505005
            ],
            "min" : [
                -1.4702969789505005,
                0,
                -1.47029709815979
            ],
            "type" : "VEC3"
        },
        {
            "bufferView" : 5,
            "componentType" : 5126,
            "count" : 18175,
            "type" : "VEC3"
        },
        {
            "bufferView" : 6,
            "componentType" : 5126,
            "count" : 18175,
            "type" : "VEC2"
        },
        {
            "bufferView" : 7,
            "componentType" : 5123,
            "count" : 46026,
            "type" : "SCALAR"
        }
    ],
    "bufferViews" : [
        {
            "buffer" : 0,
            "byteLength" : 8976,
            "byteOffset" : 0
        },
        {
            "buffer" : 0,
            "byteLength" : 8976,
            "byteOffset" : 8976
        },
        {
            "buffer" : 0,
            "byteLength" : 5984,
            "byteOffset" : 17952
        },
        {
            "buffer" : 0,
            "byteLength" : 2604,
            "byteOffset" : 23936
        },
        {
            "buffer" : 0,
            "byteLength" : 218100,
            "byteOffset" : 26540
        },
        {
            "buffer" : 0,
            "byteLength" : 218100,
            "byteOffset" : 244640
        },
        {
            "buffer" : 0,
            "byteLength" : 145400,
            "byteOffset" : 462740
        },
        {
            "buffer" : 0,
            "byteLength" : 92052,
            "byteOffset" : 608140
        }
    ],
    "buffers" : [
        {
            "byteLength" : 700192,
            "uri" : "lossushi_coin.bin"
        }
    ]
}
